<svg width="24" height="24" viewBox="0 0 24 24" fill="none" xmlns="http://www.w3.org/2000/svg">
<g id="Iconly/Light-Outline/Profile">
<g id="Profile">
<g id="Group 3">
<mask id="mask0_989_7641" style="mask-type:luminance" maskUnits="userSpaceOnUse" x="4" y="14" width="16" height="8">
<path id="Clip 2" fill-rule="evenodd" clip-rule="evenodd" d="M4 14.4961H19.8399V21.8701H4V14.4961Z" fill="white"/>
</mask>
<g mask="url(#mask0_989_7641)">
<path id="Fill 1" fill-rule="evenodd" clip-rule="evenodd" d="M11.9209 21.8701C9.96191 21.8701 3.99991 21.8701 3.99991 18.1731C3.99991 14.8771 8.52091 14.4961 11.9209 14.4961C13.8799 14.4961 19.8399 14.4961 19.8399 18.1931C19.8399 21.4891 15.3199 21.8701 11.9209 21.8701Z" fill="#464646"/>
</g>
</g>
<g id="Group 6">
<mask id="mask1_989_7641" style="mask-type:luminance" maskUnits="userSpaceOnUse" x="6" y="2" width="12" height="11">
<path id="Clip 5" fill-rule="evenodd" clip-rule="evenodd" d="M6.60986 2H17.2299V12.6186H6.60986V2Z" fill="white"/>
</mask>
<g mask="url(#mask1_989_7641)">
<path id="Fill 4" fill-rule="evenodd" clip-rule="evenodd" d="M11.9209 12.6185H11.8889C8.9669 12.6095 6.59989 10.2265 6.60989 7.30651C6.60989 4.38151 8.99189 1.99951 11.9209 1.99951C14.8489 1.99951 17.2299 4.38151 17.2299 7.30951C17.2299 10.2375 14.8489 12.6185 11.9209 12.6185Z" fill="#464646"/>
</g>
</g>
</g>
</g>
</svg>
