<svg width="24" height="24" viewBox="0 0 24 24" fill="none" xmlns="http://www.w3.org/2000/svg">
<g id="Iconly/Light-Outline/3 User">
<g id="Vector">
<path d="M11.8597 13.138H11.8867C14.4067 13.138 16.4557 11.088 16.4557 8.569C16.4557 6.05 14.4067 4 11.8867 4C9.36773 4 7.31873 6.05 7.31873 8.566C7.31373 9.783 7.78273 10.929 8.64073 11.792C9.49673 12.656 10.6397 13.134 11.8597 13.138Z" fill="#464646"/>
<path d="M16.6222 12.0337C16.91 12.1076 17.2116 12.147 17.5225 12.147C17.6073 12.147 17.6914 12.144 17.7747 12.1383C17.8114 12.1439 17.8489 12.1467 17.8868 12.1467C17.9208 12.1467 17.9558 12.1447 17.9908 12.1397C18.6234 12.051 19.2008 11.7983 19.6823 11.4285C20.5596 10.771 21.1272 9.72292 21.1272 8.54224C21.1272 6.5514 19.5133 4.9375 17.5225 4.9375C17.1996 4.9375 16.8866 4.97995 16.5888 5.05959C17.3215 6.03904 17.7557 7.25423 17.7557 8.5692C17.7557 9.86403 17.3347 11.0621 16.6222 12.0337Z" fill="#464646"/>
<path d="M7.18779 5.05605C6.894 4.9787 6.58554 4.9375 6.26746 4.9375C6.18266 4.9375 6.09855 4.94043 6.01521 4.94619C5.9785 4.94061 5.94105 4.93772 5.90309 4.93772C5.86909 4.93772 5.83409 4.93972 5.79909 4.94472C5.16653 5.03346 4.58908 5.28616 4.10762 5.65593C3.23036 6.31344 2.66272 7.36155 2.66272 8.54224C2.66272 10.5331 4.27662 12.147 6.26746 12.147C6.57035 12.147 6.86452 12.1096 7.14561 12.0393C6.4098 11.0367 6.01412 9.82758 6.01875 8.56353C6.01934 7.24942 6.45433 6.03487 7.18779 5.05605Z" fill="#464646"/>
<path d="M5.17773 17.5961C5.17773 20.7911 10.2277 20.7911 11.8867 20.7911C13.7217 20.7911 18.5947 20.7911 18.5947 17.6131C18.5947 14.4141 13.5457 14.4141 11.8867 14.4141C10.2277 14.4141 5.17773 14.4141 5.17773 17.5961Z" fill="#464646"/>
<path d="M5.93737 14.2089C5.49443 14.076 5.0013 14.002 4.48157 14.002C2.55882 14.002 1.00012 15.0159 1.00012 16.2666C1.00012 16.295 1.00093 16.3233 1.00252 16.3515C1.00093 16.3845 1.00012 16.4178 1.00012 16.4512C1.00012 17.6 1.95316 18.5312 3.1288 18.5312C3.1288 18.5312 3.44808 18.5401 3.65234 18.5312C3.89831 18.5206 3.98089 18.508 3.98089 18.508C3.91364 18.2226 3.87775 17.9186 3.87775 17.5963C3.87775 16.4043 4.37135 15.464 5.12517 14.7885C5.37609 14.5637 5.6506 14.3723 5.93737 14.2089Z" fill="#464646"/>
<path d="M17.8352 14.2089C18.2781 14.076 18.7712 14.002 19.291 14.002C21.2137 14.002 22.7724 15.0159 22.7724 16.2666C22.7724 16.295 22.7716 16.3233 22.77 16.3515C22.7716 16.3845 22.7724 16.4178 22.7724 16.4512C22.7724 17.6 21.8194 18.5312 20.6437 18.5312C20.6437 18.5312 20.3245 18.5401 20.1202 18.5312C19.8742 18.5206 19.7917 18.508 19.7917 18.508C19.8589 18.2226 19.8948 17.9186 19.8948 17.5963C19.8948 16.4043 19.4012 15.464 18.6474 14.7885C18.3965 14.5637 18.1219 14.3723 17.8352 14.2089Z" fill="#464646"/>
</g>
</g>
</svg>
