<svg width="24" height="24" viewBox="0 0 24 24" fill="none" xmlns="http://www.w3.org/2000/svg">
<g id="Iconly/Light-Outline/Folder">
<path id="Vector" fill-rule="evenodd" clip-rule="evenodd" d="M16.2316 22.669H8.4496L8.40555 22.6689C4.48251 22.6509 2.03588 20.2235 2 16.3193C1.99974 16.2903 1.9996 16.2612 1.9996 16.232V8.433C1.9996 8.39723 1.99974 8.3616 2 8.32613C2.03156 4.12788 3.92998 2 7.6426 2H9.6426C10.5936 2.001 11.4996 2.455 12.0676 3.214L12.9786 4.426C13.2676 4.81 13.7266 5.039 14.2066 5.04H17.0356C20.8976 5.04 22.6966 7.019 22.6966 11.268L22.6686 16.235C22.6676 20.1883 20.2198 22.6507 16.2756 22.6689L16.2316 22.669ZM7.9808 15.7128H16.7158C17.1298 15.7128 17.4658 15.3768 17.4658 14.9628C17.4658 14.5488 17.1298 14.2128 16.7158 14.2128H7.9808C7.5668 14.2128 7.2308 14.5488 7.2308 14.9628C7.2308 15.3768 7.5668 15.7128 7.9808 15.7128Z" fill="#464646"/>
</g>
</svg>
