<svg width="17" height="17" viewBox="0 0 17 17" fill="none" xmlns="http://www.w3.org/2000/svg">
<g id="delete_24dp_E8EAED_FILL1_wght400_GRAD0_opsz24 1">
<path id="Vector" d="M4.9585 14.875C4.56891 14.875 4.23541 14.7363 3.95798 14.4589C3.68054 14.1814 3.54183 13.8479 3.54183 13.4583V4.25C3.34114 4.25 3.17291 4.18212 3.03714 4.04635C2.90138 3.91059 2.8335 3.74236 2.8335 3.54167C2.8335 3.34097 2.90138 3.17274 3.03714 3.03698C3.17291 2.90122 3.34114 2.83333 3.54183 2.83333H6.37516C6.37516 2.63264 6.44305 2.46441 6.57881 2.32865C6.71457 2.19288 6.8828 2.125 7.0835 2.125H9.91683C10.1175 2.125 10.2858 2.19288 10.4215 2.32865C10.5573 2.46441 10.6252 2.63264 10.6252 2.83333H13.4585C13.6592 2.83333 13.8274 2.90122 13.9632 3.03698C14.0989 3.17274 14.1668 3.34097 14.1668 3.54167C14.1668 3.74236 14.0989 3.91059 13.9632 4.04635C13.8274 4.18212 13.6592 4.25 13.4585 4.25V13.4583C13.4585 13.8479 13.3198 14.1814 13.0424 14.4589C12.7649 14.7363 12.4314 14.875 12.0418 14.875H4.9585ZM7.0835 12.0417C7.28419 12.0417 7.45242 11.9738 7.58818 11.838C7.72395 11.7023 7.79183 11.534 7.79183 11.3333V6.375C7.79183 6.17431 7.72395 6.00608 7.58818 5.87031C7.45242 5.73455 7.28419 5.66667 7.0835 5.66667C6.8828 5.66667 6.71457 5.73455 6.57881 5.87031C6.44305 6.00608 6.37516 6.17431 6.37516 6.375V11.3333C6.37516 11.534 6.44305 11.7023 6.57881 11.838C6.71457 11.9738 6.8828 12.0417 7.0835 12.0417ZM9.91683 12.0417C10.1175 12.0417 10.2858 11.9738 10.4215 11.838C10.5573 11.7023 10.6252 11.534 10.6252 11.3333V6.375C10.6252 6.17431 10.5573 6.00608 10.4215 5.87031C10.2858 5.73455 10.1175 5.66667 9.91683 5.66667C9.71614 5.66667 9.54791 5.73455 9.41214 5.87031C9.27638 6.00608 9.2085 6.17431 9.2085 6.375V11.3333C9.2085 11.534 9.27638 11.7023 9.41214 11.838C9.54791 11.9738 9.71614 12.0417 9.91683 12.0417Z" fill="white"/>
</g>
</svg>