<svg width="20" height="19" viewBox="0 0 20 19" fill="none" xmlns="http://www.w3.org/2000/svg">
<g id="Edit">
<path id="Fill 1" fill-rule="evenodd" clip-rule="evenodd" d="M18.7508 18.9395L11.4978 18.9395C11.0838 18.9395 10.7478 18.6035 10.7478 18.1895C10.7478 17.7755 11.0838 17.4395 11.4978 17.4395L18.7508 17.4395C19.1648 17.4395 19.5008 17.7755 19.5008 18.1895C19.5008 18.6035 19.1648 18.9395 18.7508 18.9395Z" fill="#464646"/>
<g id="Group 5">
<mask id="mask0_1025_1885" style="mask-type:luminance" maskUnits="userSpaceOnUse" x="0" y="0" width="18" height="19">
<path id="Clip 4" fill-rule="evenodd" clip-rule="evenodd" d="M0.000335693 0L17.1809 3.00395e-06L17.1809 18.9395L0.000332382 18.9395L0.000335693 0Z" fill="white"/>
</mask>
<g mask="url(#mask0_1025_1885)">
<path id="Fill 3" fill-rule="evenodd" clip-rule="evenodd" d="M11.1106 2.01664L1.69561 13.7916C1.52461 14.0056 1.46161 14.2816 1.52461 14.5466L2.20561 17.4316L5.24461 17.3936C5.53361 17.3906 5.80061 17.2616 5.97761 17.0416C9.19461 13.0166 15.3276 5.34265 15.5016 5.11765C15.6656 4.85165 15.7296 4.47565 15.6436 4.11365C15.5556 3.74265 15.3246 3.42765 14.9916 3.22665C14.9206 3.17765 13.2356 1.86964 13.1836 1.82864C12.5496 1.32064 11.6246 1.40864 11.1106 2.01664ZM1.61361 18.9396C1.26661 18.9396 0.964607 18.7016 0.883607 18.3626L0.0646074 14.8916C-0.104392 14.1726 0.0636076 13.4306 0.524608 12.8546L9.94461 1.07264C9.94861 1.06864 9.95161 1.06364 9.95561 1.05964C10.9886 -0.175355 12.8566 -0.357355 14.1166 0.653645C14.1666 0.692645 15.8396 1.99265 15.8396 1.99265C16.4476 2.35465 16.9226 3.00165 17.1026 3.76765C17.2816 4.52565 17.1516 5.30765 16.7346 5.96865C16.7036 6.01765 16.6766 6.05965 7.14861 17.9796C6.68961 18.5516 6.00161 18.8846 5.26261 18.8936L1.62361 18.9396L1.61361 18.9396Z" fill="#464646"/>
</g>
</g>
<path id="Fill 6" fill-rule="evenodd" clip-rule="evenodd" d="M14.2234 8.68487C14.0634 8.68487 13.9034 8.63387 13.7664 8.52987L8.31442 4.34187C7.98642 4.08987 7.92442 3.61987 8.17642 3.28987C8.42942 2.96187 8.89942 2.90087 9.22842 3.15287L14.6814 7.33987C15.0094 7.59187 15.0714 8.06287 14.8184 8.39187C14.6714 8.58387 14.4484 8.68487 14.2234 8.68487Z" fill="#464646"/>
</g>
</svg>
