<svg width="13" height="18" viewBox="0 0 13 18" fill="none" xmlns="http://www.w3.org/2000/svg">
<g id="Vector">
<path d="M9.19836 4.11757C12.5581 6.3041 13.6115 10.7982 11.5335 14.2987C9.45556 17.7991 5.01456 19.0117 1.49712 17.0909L3.40166 13.8825C5.16163 14.7588 7.32962 14.1323 8.35703 12.4015C9.38445 10.6708 8.90046 8.46041 7.29382 7.32591L9.19836 4.11757Z" fill="#292929"/>
<path d="M3.40166 13.8825C0.0419574 11.696 -1.01146 7.20179 1.06649 3.70134C3.14443 0.20088 7.58543 -1.01171 11.1029 0.909111L9.19836 4.11757C7.43839 3.24136 5.27037 3.86772 4.24296 5.59848C3.21555 7.32923 3.69953 9.53959 5.30618 10.6741L3.40166 13.8825Z" fill="#292929"/>
</g>
</svg>
