<svg width="16" height="17" viewBox="0 0 16 17" fill="none" xmlns="http://www.w3.org/2000/svg">
<path fill-rule="evenodd" clip-rule="evenodd" d="M4.16683 2.83325C2.3335 2.83325 2.3335 2.97192 2.3335 4.66659V4.68325C2.3335 5.42125 2.3335 5.95459 2.51416 6.17992C2.69083 6.39859 3.2155 6.49992 4.16683 6.49992C5.11816 6.49992 5.64283 6.39792 5.8195 6.17925C6.00016 5.95459 6.00016 5.42125 6.00016 4.68259C6.00016 2.97192 6.00016 2.83325 4.16683 2.83325ZM4.16683 7.49992C3.04283 7.49992 2.1995 7.38192 1.73616 6.80658C1.3335 6.30725 1.3335 5.62592 1.3335 4.68325L1.8335 4.66659H1.3335C1.3335 2.75325 1.45416 1.83325 4.16683 1.83325C6.8795 1.83325 7.00016 2.75325 7.00016 4.66659C7.00016 5.62525 7.00016 6.30725 6.5975 6.80658C6.13416 7.38192 5.29083 7.49992 4.16683 7.49992Z" fill="#292929"/>
<path fill-rule="evenodd" clip-rule="evenodd" d="M11.5003 2.83325C9.66699 2.83325 9.66699 2.97192 9.66699 4.66659V4.68325C9.66699 5.42125 9.66699 5.95459 9.84766 6.17992C10.0243 6.39859 10.549 6.49992 11.5003 6.49992C12.4517 6.49992 12.9763 6.39792 13.153 6.17925C13.3337 5.95459 13.3337 5.42125 13.3337 4.68259C13.3337 2.97192 13.3337 2.83325 11.5003 2.83325ZM11.5003 7.49992C10.3763 7.49992 9.53299 7.38192 9.06966 6.80658C8.66699 6.30725 8.66699 5.62592 8.66699 4.68325L9.16699 4.66659H8.66699C8.66699 2.75325 8.78766 1.83325 11.5003 1.83325C14.213 1.83325 14.3337 2.75325 14.3337 4.66659C14.3337 5.62525 14.3337 6.30725 13.931 6.80658C13.4677 7.38192 12.6243 7.49992 11.5003 7.49992Z" fill="#292929"/>
<path fill-rule="evenodd" clip-rule="evenodd" d="M4.16683 10.1665C2.3335 10.1665 2.3335 10.3052 2.3335 11.9998V12.0165C2.3335 12.7545 2.3335 13.2878 2.51416 13.5132C2.69083 13.7318 3.2155 13.8332 4.16683 13.8332C5.11816 13.8332 5.64283 13.7312 5.8195 13.5125C6.00016 13.2878 6.00016 12.7545 6.00016 12.0158C6.00016 10.3052 6.00016 10.1665 4.16683 10.1665ZM4.16683 14.8332C3.04283 14.8332 2.1995 14.7152 1.73616 14.1398C1.3335 13.6405 1.3335 12.9592 1.3335 12.0165L1.8335 11.9998H1.3335C1.3335 10.0865 1.45416 9.1665 4.16683 9.1665C6.8795 9.1665 7.00016 10.0865 7.00016 11.9998C7.00016 12.9585 7.00016 13.6405 6.5975 14.1398C6.13416 14.7152 5.29083 14.8332 4.16683 14.8332Z" fill="#292929"/>
<path fill-rule="evenodd" clip-rule="evenodd" d="M11.5003 10.1665C9.66699 10.1665 9.66699 10.3052 9.66699 11.9998V12.0165C9.66699 12.7545 9.66699 13.2878 9.84766 13.5132C10.0243 13.7318 10.549 13.8332 11.5003 13.8332C12.4517 13.8332 12.9763 13.7312 13.153 13.5125C13.3337 13.2878 13.3337 12.7545 13.3337 12.0158C13.3337 10.3052 13.3337 10.1665 11.5003 10.1665ZM11.5003 14.8332C10.3763 14.8332 9.53299 14.7152 9.06966 14.1398C8.66699 13.6405 8.66699 12.9592 8.66699 12.0165L9.16699 11.9998H8.66699C8.66699 10.0865 8.78766 9.1665 11.5003 9.1665C14.213 9.1665 14.3337 10.0865 14.3337 11.9998C14.3337 12.9585 14.3337 13.6405 13.931 14.1398C13.4677 14.7152 12.6243 14.8332 11.5003 14.8332Z" fill="#292929"/>
</svg>