<svg width="24" height="24" viewBox="0 0 24 24" fill="none" xmlns="http://www.w3.org/2000/svg">
<path d="M19.4413 20.4029L13.244 14.2029C12.7505 14.6157 12.1813 14.9342 11.5365 15.1584C10.8917 15.3824 10.2314 15.4944 9.55575 15.4944C7.88159 15.4944 6.46675 14.9164 5.31125 13.7604C4.15575 12.6044 3.578 11.1919 3.578 9.52289C3.578 7.85389 4.15509 6.44055 5.30925 5.28289C6.46359 4.12522 7.87609 3.54639 9.54675 3.54639C11.2174 3.54639 12.6317 4.12489 13.7895 5.28189C14.9472 6.43905 15.526 7.85297 15.526 9.52364C15.526 10.2221 15.4087 10.8951 15.174 11.5424C14.9393 12.1899 14.6262 12.7506 14.2345 13.2244L20.4345 19.4096L19.4413 20.4029ZM9.552 14.0954C10.832 14.0954 11.9145 13.6536 12.7995 12.7699C13.6845 11.8861 14.127 10.8027 14.127 9.51989C14.127 8.23689 13.6845 7.15372 12.7995 6.27039C11.9145 5.38705 10.8312 4.94539 9.5495 4.94539C8.26784 4.94539 7.18534 5.38722 6.302 6.27089C5.41867 7.15455 4.977 8.23789 4.977 9.52089C4.977 10.8039 5.41875 11.8871 6.30225 12.7704C7.18592 13.6537 8.26917 14.0954 9.552 14.0954Z" fill="#464646"/>
</svg>