<svg width="25" height="24" viewBox="0 0 25 24" fill="none" xmlns="http://www.w3.org/2000/svg">
<rect width="25" height="24" fill="#1E1E1E"/>
<path d="M-233 -312C-233 -313.105 -232.105 -314 -231 -314H1524C1525.1 -314 1526 -313.105 1526 -312V405C1526 406.105 1525.1 407 1524 407H-231C-232.105 407 -233 406.105 -233 405V-312Z" fill="#444444"/>
<path d="M-231 -313H1524V-315H-231V-313ZM1525 -312V405H1527V-312H1525ZM1524 406H-231V408H1524V406ZM-232 405V-312H-234V405H-232ZM-231 406C-231.552 406 -232 405.552 -232 405H-234C-234 406.657 -232.657 408 -231 408V406ZM1525 405C1525 405.552 1524.55 406 1524 406V408C1525.66 408 1527 406.657 1527 405H1525ZM1524 -313C1524.55 -313 1525 -312.552 1525 -312H1527C1527 -313.657 1525.66 -315 1524 -315V-313ZM-231 -315C-232.657 -315 -234 -313.657 -234 -312H-232C-232 -312.552 -231.552 -313 -231 -313V-315Z" fill="white" fill-opacity="0.1"/>
<path d="M-132.5 -190C-132.5 -202.979 -121.979 -213.5 -109 -213.5H463C475.979 -213.5 486.5 -202.979 486.5 -190V201C486.5 213.979 475.979 224.5 463 224.5H-109C-121.979 224.5 -132.5 213.979 -132.5 201V-190Z" fill="white"/>
<path d="M-132.5 -190C-132.5 -202.979 -121.979 -213.5 -109 -213.5H463C475.979 -213.5 486.5 -202.979 486.5 -190V201C486.5 213.979 475.979 224.5 463 224.5H-109C-121.979 224.5 -132.5 213.979 -132.5 201V-190Z" stroke="#D8DBE5"/>
<mask id="mask0_1_7" style="mask-type:luminance" maskUnits="userSpaceOnUse" x="2" y="2" width="20" height="21">
<path fill-rule="evenodd" clip-rule="evenodd" d="M2.5 2.00049H21.7849V22.7215H2.5V2.00049Z" fill="white"/>
</mask>
<g mask="url(#mask0_1_7)">
<path fill-rule="evenodd" clip-rule="evenodd" d="M7.7022 17.4405C7.9312 17.4405 8.1602 17.4695 8.3842 17.5295C9.0602 17.7115 9.6472 18.1635 9.9952 18.7705C10.2212 19.1515 10.3462 19.5965 10.3502 20.0505C10.3502 20.7005 10.8722 21.2215 11.5142 21.2215H12.7672C13.4062 21.2215 13.9282 20.7035 13.9312 20.0645C13.9272 19.3585 14.2032 18.6875 14.7082 18.1825C15.2062 17.6845 15.9022 17.3855 16.5982 17.4055C17.0542 17.4165 17.4932 17.5395 17.8802 17.7595C18.4372 18.0785 19.1482 17.8885 19.4702 17.3385L20.1342 16.2315C20.2822 15.9765 20.3252 15.6565 20.2462 15.3615C20.1682 15.0665 19.9722 14.8105 19.7082 14.6595C19.0902 14.3035 18.6492 13.7295 18.4662 13.0415C18.2852 12.3665 18.3842 11.6295 18.7372 11.0225C18.9672 10.6225 19.3042 10.2855 19.7082 10.0535C20.2502 9.73649 20.4402 9.02749 20.1252 8.47549C20.1122 8.45349 20.1002 8.43049 20.0902 8.40649L19.5042 7.39049C19.1852 6.83549 18.4752 6.64449 17.9182 6.96149C17.3162 7.31749 16.6002 7.41949 15.9122 7.23849C15.2252 7.06049 14.6492 6.62549 14.2902 6.01149C14.0602 5.62749 13.9352 5.18049 13.9312 4.72549C13.9402 4.38349 13.8202 4.07649 13.6022 3.85149C13.3852 3.62749 13.0802 3.50049 12.7672 3.50049H11.5142C11.2042 3.50049 10.9142 3.62149 10.6952 3.83949C10.4772 4.05849 10.3582 4.34949 10.3602 4.65949C10.3392 6.12149 9.1442 7.29849 7.6972 7.29849C7.2332 7.29349 6.7862 7.16849 6.3982 6.93649C5.8532 6.62649 5.1412 6.81749 4.8222 7.37249L4.1452 8.48549C3.8352 9.02349 4.0252 9.73449 4.5772 10.0555C5.3962 10.5295 5.9072 11.4135 5.9072 12.3615C5.9072 13.3095 5.3962 14.1925 4.5752 14.6675C4.0262 14.9855 3.8362 15.6925 4.1542 16.2425L4.7852 17.3305C4.9412 17.6115 5.1962 17.8145 5.4912 17.8975C5.7852 17.9795 6.1092 17.9445 6.3792 17.7945C6.7762 17.5615 7.2382 17.4405 7.7022 17.4405ZM12.7672 22.7215H11.5142C10.0452 22.7215 8.8502 21.5275 8.8502 20.0585C8.8482 19.8775 8.7962 19.6895 8.6992 19.5265C8.5422 19.2525 8.2882 19.0565 7.9952 18.9785C7.7042 18.9005 7.3852 18.9435 7.1232 19.0955C6.4952 19.4455 5.7562 19.5305 5.0802 19.3405C4.4052 19.1495 3.8222 18.6855 3.4802 18.0705L2.8552 16.9935C2.1242 15.7255 2.5592 14.1005 3.8252 13.3685C4.1842 13.1615 4.4072 12.7755 4.4072 12.3615C4.4072 11.9475 4.1842 11.5605 3.8252 11.3535C2.5582 10.6175 2.1242 8.98849 2.8542 7.72049L3.5322 6.60749C4.2532 5.35349 5.8832 4.91149 7.1542 5.64149C7.3272 5.74449 7.5152 5.79649 7.7062 5.79849C8.3292 5.79849 8.8502 5.28449 8.8602 4.65249C8.8562 3.95549 9.1312 3.28649 9.6322 2.78149C10.1352 2.27749 10.8032 2.00049 11.5142 2.00049H12.7672C13.4832 2.00049 14.1792 2.29449 14.6782 2.80549C15.1762 3.31949 15.4512 4.02449 15.4302 4.73949C15.4322 4.90049 15.4852 5.08649 15.5812 5.24949C15.7402 5.51949 15.9912 5.70949 16.2892 5.78749C16.5872 5.86149 16.8992 5.82149 17.1642 5.66449C18.4442 4.93349 20.0732 5.37149 20.8042 6.64149L21.4272 7.72049C21.4432 7.74949 21.4572 7.77749 21.4692 7.80649C22.1312 9.05749 21.6892 10.6325 20.4592 11.3515C20.2802 11.4545 20.1352 11.5985 20.0352 11.7725C19.8802 12.0415 19.8372 12.3615 19.9152 12.6555C19.9952 12.9555 20.1862 13.2045 20.4552 13.3585C21.0622 13.7075 21.5152 14.2955 21.6962 14.9745C21.8772 15.6525 21.7782 16.3885 21.4252 16.9955L20.7612 18.1015C20.0302 19.3575 18.4012 19.7925 17.1342 19.0605C16.9652 18.9635 16.7702 18.9105 16.5762 18.9055H16.5702C16.2812 18.9055 15.9842 19.0285 15.7682 19.2435C15.5492 19.4625 15.4292 19.7545 15.4312 20.0645C15.4242 21.5335 14.2292 22.7215 12.7672 22.7215Z" fill="#464646"/>
</g>
<path fill-rule="evenodd" clip-rule="evenodd" d="M12.1451 10.4746C11.1051 10.4746 10.2591 11.3216 10.2591 12.3616C10.2591 13.4016 11.1051 14.2466 12.1451 14.2466C13.1851 14.2466 14.0311 13.4016 14.0311 12.3616C14.0311 11.3216 13.1851 10.4746 12.1451 10.4746ZM12.1451 15.7466C10.2781 15.7466 8.75909 14.2286 8.75909 12.3616C8.75909 10.4946 10.2781 8.97461 12.1451 8.97461C14.0121 8.97461 15.5311 10.4946 15.5311 12.3616C15.5311 14.2286 14.0121 15.7466 12.1451 15.7466Z" fill="#464646"/>
</svg>
