<svg width="68" height="18" viewBox="0 0 68 18" fill="none" xmlns="http://www.w3.org/2000/svg">
<path d="M9.19836 4.11757C12.5581 6.3041 13.6115 10.7982 11.5335 14.2987C9.45556 17.7991 5.01456 19.0117 1.49712 17.0909L3.40166 13.8825C5.16163 14.7588 7.32962 14.1323 8.35703 12.4015C9.38444 10.6708 8.90046 8.46041 7.29382 7.32591L9.19836 4.11757Z" fill="#292929"/>
<path d="M3.40166 13.8825C0.0419575 11.696 -1.01146 7.20179 1.06649 3.70134C3.14443 0.20088 7.58543 -1.01171 11.1029 0.909111L9.19836 4.11757C7.43839 3.24136 5.27037 3.86772 4.24296 5.59848C3.21555 7.32923 3.69953 9.53959 5.30618 10.6741L3.40166 13.8825Z" fill="#292929"/>
<path d="M25.6849 17.9422C24.9969 17.9422 24.3169 17.8542 23.6449 17.6782C22.9889 17.5022 22.3729 17.2542 21.7969 16.9342C21.2369 16.5982 20.7569 16.2142 20.3569 15.7822L22.4449 13.6702C22.8289 14.0862 23.2849 14.4142 23.8129 14.6542C24.3409 14.8782 24.9169 14.9902 25.5409 14.9902C25.9729 14.9902 26.3009 14.9262 26.5249 14.7982C26.7649 14.6702 26.8849 14.4942 26.8849 14.2702C26.8849 13.9822 26.7409 13.7662 26.4529 13.6222C26.1809 13.4622 25.8289 13.3262 25.3969 13.2142C24.9649 13.0862 24.5089 12.9502 24.0289 12.8062C23.5489 12.6622 23.0929 12.4622 22.6609 12.2062C22.2289 11.9502 21.8769 11.5982 21.6049 11.1502C21.3329 10.6862 21.1969 10.1022 21.1969 9.39816C21.1969 8.64616 21.3889 7.99816 21.7729 7.45416C22.1569 6.89416 22.7009 6.45416 23.4049 6.13416C24.1089 5.81416 24.9329 5.65416 25.8769 5.65416C26.8689 5.65416 27.7809 5.83016 28.6129 6.18216C29.4609 6.51816 30.1489 7.02216 30.6769 7.69416L28.5889 9.80616C28.2209 9.37416 27.8049 9.07016 27.3409 8.89416C26.8929 8.71816 26.4529 8.63016 26.0209 8.63016C25.6049 8.63016 25.2929 8.69416 25.0849 8.82216C24.8769 8.93416 24.7729 9.10216 24.7729 9.32616C24.7729 9.56616 24.9089 9.75816 25.1809 9.90216C25.4529 10.0462 25.8049 10.1742 26.2369 10.2862C26.6689 10.3982 27.1249 10.5342 27.6049 10.6942C28.0849 10.8542 28.5409 11.0702 28.9729 11.3422C29.4049 11.6142 29.7569 11.9822 30.0289 12.4462C30.3009 12.8942 30.4369 13.4862 30.4369 14.2222C30.4369 15.3582 30.0049 16.2622 29.1409 16.9342C28.2929 17.6062 27.1409 17.9422 25.6849 17.9422Z" fill="#292929"/>
<path d="M32.4291 17.6542V0.230156H36.1011V17.6542H32.4291Z" fill="#292929"/>
<path d="M38.6869 17.6542V5.99016H42.3589V17.6542H38.6869ZM40.5349 4.38216C39.9589 4.38216 39.4789 4.19016 39.0949 3.80616C38.7269 3.40616 38.5429 2.92616 38.5429 2.36616C38.5429 1.79016 38.7269 1.31016 39.0949 0.926156C39.4789 0.542156 39.9589 0.350156 40.5349 0.350156C41.1109 0.350156 41.5829 0.542156 41.9509 0.926156C42.3189 1.31016 42.5029 1.79016 42.5029 2.36616C42.5029 2.92616 42.3189 3.40616 41.9509 3.80616C41.5829 4.19016 41.1109 4.38216 40.5349 4.38216Z" fill="#292929"/>
<path d="M50.5847 17.9182C49.3847 17.9182 48.2967 17.6542 47.3207 17.1262C46.3447 16.5982 45.5767 15.8702 45.0167 14.9422C44.4567 14.0142 44.1767 12.9742 44.1767 11.8222C44.1767 10.6542 44.4567 9.61416 45.0167 8.70216C45.5927 7.77416 46.3687 7.04616 47.3447 6.51816C48.3207 5.99016 49.4167 5.72616 50.6327 5.72616C51.5447 5.72616 52.3767 5.88616 53.1287 6.20616C53.8967 6.51016 54.5767 6.97416 55.1687 7.59816L52.8167 9.95016C52.5447 9.64616 52.2247 9.42216 51.8567 9.27816C51.5047 9.13416 51.0967 9.06216 50.6327 9.06216C50.1047 9.06216 49.6327 9.18216 49.2167 9.42216C48.8167 9.64616 48.4967 9.96616 48.2567 10.3822C48.0327 10.7822 47.9207 11.2542 47.9207 11.7982C47.9207 12.3422 48.0327 12.8222 48.2567 13.2382C48.4967 13.6542 48.8247 13.9822 49.2407 14.2222C49.6567 14.4622 50.1207 14.5822 50.6327 14.5822C51.1127 14.5822 51.5367 14.5022 51.9047 14.3422C52.2887 14.1662 52.6167 13.9262 52.8887 13.6222L55.2167 15.9742C54.6087 16.6142 53.9207 17.1022 53.1527 17.4382C52.3847 17.7582 51.5287 17.9182 50.5847 17.9182Z" fill="#292929"/>
<path d="M62.3297 17.9182C61.0657 17.9182 59.9377 17.6622 58.9457 17.1502C57.9697 16.6222 57.2017 15.8942 56.6417 14.9662C56.0817 14.0382 55.8017 12.9902 55.8017 11.8222C55.8017 10.6542 56.0737 9.61416 56.6177 8.70216C57.1777 7.77416 57.9297 7.04616 58.8737 6.51816C59.8177 5.99016 60.8817 5.72616 62.0657 5.72616C63.2177 5.72616 64.2337 5.97416 65.1137 6.47016C65.9937 6.96616 66.6817 7.65416 67.1777 8.53416C67.6897 9.41416 67.9457 10.4222 67.9457 11.5582C67.9457 11.7662 67.9297 11.9902 67.8977 12.2302C67.8817 12.4542 67.8417 12.7182 67.7777 13.0222L57.7217 13.0462V10.5262L66.2177 10.5022L64.6337 11.5582C64.6177 10.8862 64.5137 10.3342 64.3217 9.90216C64.1297 9.45416 63.8417 9.11816 63.4577 8.89416C63.0897 8.65416 62.6337 8.53416 62.0897 8.53416C61.5137 8.53416 61.0097 8.67016 60.5777 8.94216C60.1617 9.19816 59.8337 9.56616 59.5937 10.0462C59.3697 10.5262 59.2577 11.1102 59.2577 11.7982C59.2577 12.4862 59.3777 13.0782 59.6177 13.5742C59.8737 14.0542 60.2257 14.4302 60.6737 14.7022C61.1377 14.9582 61.6817 15.0862 62.3057 15.0862C62.8817 15.0862 63.4017 14.9902 63.8657 14.7982C64.3297 14.5902 64.7377 14.2862 65.0897 13.8862L67.1057 15.9022C66.5297 16.5742 65.8337 17.0782 65.0177 17.4142C64.2017 17.7502 63.3057 17.9182 62.3297 17.9182Z" fill="#292929"/>
</svg>
