<svg width="20" height="20" viewBox="0 0 20 20" fill="none" xmlns="http://www.w3.org/2000/svg">
<g id="Vector">
<path fill-rule="evenodd" clip-rule="evenodd" d="M17.6166 20C18.227 20 18.8373 19.768 19.3014 19.3007C20.2329 18.3693 20.2329 16.8626 19.3014 15.9312L4.06819 0.698534C3.13677 -0.232844 1.62998 -0.232845 0.698564 0.698533C-0.232851 1.62991 -0.232851 3.13665 0.698564 4.06802L15.9318 19.3007C16.3959 19.768 17.0063 20 17.6166 20Z" fill="#464646"/>
<path fill-rule="evenodd" clip-rule="evenodd" d="M2.38186 20C2.99182 20 3.60178 19.7681 4.0656 19.3012L19.3019 4.0648C20.2327 3.13416 20.2327 1.62862 19.3019 0.697982C18.3679 -0.232657 16.862 -0.232657 15.9344 0.697981L0.698118 15.9344C-0.232706 16.865 -0.232706 18.3706 0.698117 19.3012C1.16194 19.7681 1.77508 20 2.38186 20Z" fill="#464646"/>
</g>
</svg>
